# xmcd
# 
# Track frame offsets:
#     182
#     18607
#     33582
#     46057
#     62882
#     81207
#     96832
#     111157
#     127682
#     141732
#     155832
#     170607
#     181832
#     196557
#     210032
#     222757
# 
# Disc length: 3151
# 
# Revision: 4
# Processed by: cddbd v1.5.2PL0 Copyright (c) Steve Scherf et al.
# Submitted via: fre:ac v1.0.31
# 
DISCID=d90c4d10
DTITLE=Various Artist - Trucker`s Gold - Asphaltträum  CD 1
DYEAR=2000
DGENRE=Country
TTITLE0=Tom Astor - Verlorener Sohn
TTITLE1=Jonny Hill - Schnee von gestern
TTITLE2=Linda Feller - Auch eine Frau kann ihren Mann stehen
TTITLE3=Tom Astor - Dieser Tag kann Dein Tag sein
TTITLE4=Larry Schuba and Western Union - Wieder unterwegs
TTITLE5=Tom Astor - Warum Whiskey pur
TTITLE6=Gunter Gabriel - Flensburg (Gib mir meine Pappe wieder)
TTITLE7=Nashville Music Company - Nie mehr Allein
TTITLE8=Tom Astor - Sie ist wie ein neues Leben
TTITLE9=Joe Hodgkins Boss Band - Das Leben geniessen
TTITLE10=Rugy and Flake - Good old Mexico
TTITLE11=Tom Astor - Niemand schaut der Zukunft in die Karten
TTITLE12=Rheinstone Cowboys - Huck Weed dat Paad jesaddelt
TTITLE13=Tom Astor - Kleiner Rebell
TTITLE14=Dagmar the Lady of Country - Ich Fahr schon wieder um die Welt
TTITLE15=Tom Astor - You just can`t see him from the Road
EXTD=YEAR: 2000 ID3G: 2
EXTT0=
EXTT1=
EXTT2=
EXTT3=
EXTT4=
EXTT5=
EXTT6=
EXTT7=
EXTT8=
EXTT9=
EXTT10=
EXTT11=
EXTT12=
EXTT13=
EXTT14=
EXTT15=
PLAYORDER=
